<svg width="256" height="256" viewBox="0 0 256 256" fill="none" xmlns="http://www.w3.org/2000/svg">
<rect width="256" height="256" rx="4" fill="url(#paint0_linear_6_63)"/>
<rect x="51.4833" y="66.6788" width="153.868" height="154.515" rx="6.46506" fill="white"/>
<path d="M128.814 174.159L126.604 168.351H107.79L105.58 174.285C104.717 176.6 103.981 178.168 103.37 178.989C102.76 179.789 101.76 180.188 100.371 180.188C99.1929 180.188 98.1512 179.757 97.2462 178.894C96.3413 178.031 95.8888 177.053 95.8888 175.958C95.8888 175.327 95.9941 174.675 96.2045 174.001C96.415 173.328 96.7622 172.391 97.2462 171.192L109.084 141.139C109.421 140.276 109.821 139.245 110.284 138.046C110.768 136.825 111.273 135.815 111.799 135.015C112.346 134.215 113.051 133.574 113.914 133.089C114.798 132.584 115.882 132.332 117.165 132.332C118.47 132.332 119.554 132.584 120.417 133.089C121.301 133.574 122.006 134.205 122.532 134.984C123.079 135.762 123.532 136.604 123.889 137.509C124.268 138.393 124.742 139.582 125.31 141.076L137.4 170.939C138.347 173.212 138.821 174.864 138.821 175.895C138.821 176.969 138.368 177.958 137.463 178.863C136.58 179.746 135.506 180.188 134.244 180.188C133.507 180.188 132.876 180.052 132.349 179.778C131.823 179.526 131.381 179.178 131.024 178.736C130.666 178.273 130.277 177.579 129.856 176.653C129.456 175.706 129.109 174.875 128.814 174.159ZM110.252 161.311H124.079L117.102 142.213L110.252 161.311ZM146.113 174.475V138.014C146.113 136.12 146.544 134.699 147.407 133.752C148.27 132.805 149.385 132.332 150.753 132.332C152.163 132.332 153.3 132.805 154.163 133.752C155.047 134.678 155.489 136.099 155.489 138.014V174.475C155.489 176.39 155.047 177.821 154.163 178.768C153.3 179.715 152.163 180.188 150.753 180.188C149.407 180.188 148.291 179.715 147.407 178.768C146.544 177.8 146.113 176.369 146.113 174.475Z" fill="url(#paint1_linear_6_63)"/>
<path d="M169.861 197.951L176.827 204.633L183.793 197.951C184.493 197.279 185.624 197.279 186.324 197.951C187.024 198.623 187.024 199.708 186.324 200.379L178.084 208.283C177.384 208.955 176.253 208.955 175.552 208.283L167.312 200.379C166.612 199.708 166.612 198.623 167.312 197.951C168.012 197.297 169.161 197.279 169.861 197.951Z" fill="url(#paint2_linear_6_63)"/>
<path d="M169.861 186.612L176.827 193.293L183.793 186.612C184.493 185.94 185.624 185.94 186.324 186.612C187.024 187.283 187.024 188.368 186.324 189.04L178.084 196.944C177.384 197.615 176.253 197.615 175.552 196.944L167.312 189.04C166.612 188.368 166.612 187.283 167.312 186.612C168.012 185.957 169.161 185.94 169.861 186.612Z" fill="url(#paint3_linear_6_63)"/>
<path d="M77.6065 35.8196C78.2879 35.2885 79.1272 35 79.9912 35H179.58C180.551 35 181.486 35.364 182.202 36.0201L201.237 53.4758C203.844 55.8666 202.152 60.2137 198.615 60.2137H57.5973C53.9059 60.2137 52.3012 55.5447 55.2126 53.2753L77.6065 35.8196Z" fill="white"/>
<path d="M63.9604 116L71.3828 96.6729H74.1382L82.0483 116H79.1348L76.8804 110.146H68.7988L66.6763 116H63.9604ZM69.5371 108.063H76.0894L74.0723 102.711C73.457 101.085 73 99.749 72.7012 98.7031C72.4551 99.9424 72.1079 101.173 71.6597 102.395L69.5371 108.063ZM83.7358 116V96.6729H86.1089V116H83.7358ZM89.8135 99.4019V96.6729H92.1865V99.4019H89.8135ZM89.8135 116V101.999H92.1865V116H89.8135Z" fill="url(#paint4_linear_6_63)"/>
<path d="M96.168 116V96.6729H110.143V98.9536H98.7256V104.873H109.417V107.141H98.7256V113.719H110.591V116H96.168ZM112.239 116L117.354 108.723L112.621 101.999H115.587L117.736 105.282C118.141 105.906 118.466 106.429 118.712 106.851C119.099 106.271 119.455 105.756 119.78 105.308L122.14 101.999H124.974L120.136 108.591L125.343 116H122.43L119.556 111.649L118.791 110.476L115.113 116H112.239ZM127.321 121.366V101.999H129.483V103.818C129.993 103.106 130.568 102.575 131.21 102.223C131.852 101.863 132.629 101.683 133.543 101.683C134.739 101.683 135.793 101.99 136.708 102.605C137.622 103.221 138.312 104.091 138.777 105.216C139.243 106.332 139.476 107.558 139.476 108.894C139.476 110.327 139.217 111.619 138.698 112.77C138.188 113.913 137.441 114.792 136.457 115.407C135.481 116.013 134.453 116.316 133.372 116.316C132.581 116.316 131.869 116.149 131.236 115.815C130.612 115.481 130.098 115.06 129.694 114.55V121.366H127.321ZM129.47 109.079C129.47 110.88 129.834 112.212 130.564 113.073C131.293 113.935 132.177 114.365 133.214 114.365C134.269 114.365 135.169 113.921 135.917 113.034C136.672 112.137 137.05 110.753 137.05 108.881C137.05 107.097 136.681 105.761 135.943 104.873C135.213 103.985 134.339 103.542 133.319 103.542C132.309 103.542 131.412 104.016 130.63 104.965C129.856 105.906 129.47 107.277 129.47 109.079ZM142.324 116V101.999H144.459V104.122C145.004 103.128 145.505 102.474 145.962 102.157C146.428 101.841 146.938 101.683 147.492 101.683C148.292 101.683 149.104 101.938 149.931 102.447L149.113 104.649C148.533 104.306 147.953 104.135 147.373 104.135C146.854 104.135 146.389 104.293 145.976 104.609C145.562 104.917 145.268 105.348 145.092 105.901C144.829 106.745 144.697 107.668 144.697 108.67V116H142.324ZM160.926 111.491L163.378 111.794C162.991 113.227 162.275 114.339 161.229 115.13C160.183 115.921 158.847 116.316 157.221 116.316C155.173 116.316 153.547 115.688 152.343 114.431C151.148 113.166 150.55 111.395 150.55 109.118C150.55 106.763 151.157 104.935 152.37 103.634C153.583 102.333 155.156 101.683 157.089 101.683C158.961 101.683 160.491 102.32 161.677 103.594C162.864 104.869 163.457 106.662 163.457 108.973C163.457 109.114 163.453 109.325 163.444 109.606H153.002C153.09 111.144 153.525 112.322 154.308 113.139C155.09 113.957 156.065 114.365 157.234 114.365C158.104 114.365 158.847 114.137 159.462 113.68C160.078 113.223 160.565 112.493 160.926 111.491ZM153.134 107.655H160.952C160.847 106.477 160.548 105.594 160.056 105.005C159.3 104.091 158.32 103.634 157.116 103.634C156.026 103.634 155.107 103.999 154.36 104.728C153.622 105.458 153.213 106.433 153.134 107.655ZM165.421 111.821L167.768 111.452C167.9 112.392 168.265 113.113 168.862 113.614C169.469 114.115 170.312 114.365 171.394 114.365C172.483 114.365 173.292 114.146 173.819 113.706C174.347 113.258 174.61 112.735 174.61 112.137C174.61 111.601 174.377 111.179 173.912 110.872C173.586 110.661 172.778 110.393 171.486 110.067C169.746 109.628 168.537 109.25 167.86 108.934C167.192 108.608 166.683 108.165 166.331 107.602C165.988 107.031 165.817 106.402 165.817 105.717C165.817 105.093 165.958 104.517 166.239 103.99C166.529 103.454 166.92 103.01 167.412 102.658C167.781 102.386 168.282 102.157 168.915 101.973C169.557 101.779 170.242 101.683 170.972 101.683C172.07 101.683 173.033 101.841 173.859 102.157C174.694 102.474 175.309 102.904 175.705 103.449C176.1 103.985 176.373 104.706 176.522 105.611L174.202 105.928C174.096 105.207 173.789 104.645 173.279 104.24C172.778 103.836 172.066 103.634 171.143 103.634C170.053 103.634 169.275 103.814 168.81 104.174C168.344 104.535 168.111 104.957 168.111 105.44C168.111 105.748 168.208 106.024 168.401 106.271C168.594 106.525 168.897 106.736 169.311 106.903C169.548 106.991 170.247 107.193 171.407 107.51C173.085 107.958 174.254 108.327 174.914 108.617C175.582 108.898 176.104 109.312 176.482 109.856C176.86 110.401 177.049 111.078 177.049 111.887C177.049 112.678 176.816 113.425 176.351 114.128C175.894 114.822 175.23 115.363 174.36 115.75C173.49 116.127 172.505 116.316 171.407 116.316C169.587 116.316 168.199 115.938 167.241 115.183C166.292 114.427 165.685 113.306 165.421 111.821ZM178.921 111.821L181.268 111.452C181.4 112.392 181.765 113.113 182.362 113.614C182.969 114.115 183.812 114.365 184.894 114.365C185.983 114.365 186.792 114.146 187.319 113.706C187.847 113.258 188.11 112.735 188.11 112.137C188.11 111.601 187.877 111.179 187.412 110.872C187.086 110.661 186.278 110.393 184.986 110.067C183.246 109.628 182.037 109.25 181.36 108.934C180.692 108.608 180.183 108.165 179.831 107.602C179.488 107.031 179.317 106.402 179.317 105.717C179.317 105.093 179.458 104.517 179.739 103.99C180.029 103.454 180.42 103.01 180.912 102.658C181.281 102.386 181.782 102.157 182.415 101.973C183.057 101.779 183.742 101.683 184.472 101.683C185.57 101.683 186.533 101.841 187.359 102.157C188.194 102.474 188.809 102.904 189.205 103.449C189.6 103.985 189.873 104.706 190.022 105.611L187.702 105.928C187.596 105.207 187.289 104.645 186.779 104.24C186.278 103.836 185.566 103.634 184.643 103.634C183.553 103.634 182.775 103.814 182.31 104.174C181.844 104.535 181.611 104.957 181.611 105.44C181.611 105.748 181.708 106.024 181.901 106.271C182.094 106.525 182.397 106.736 182.811 106.903C183.048 106.991 183.747 107.193 184.907 107.51C186.585 107.958 187.754 108.327 188.414 108.617C189.082 108.898 189.604 109.312 189.982 109.856C190.36 110.401 190.549 111.078 190.549 111.887C190.549 112.678 190.316 113.425 189.851 114.128C189.394 114.822 188.73 115.363 187.86 115.75C186.99 116.127 186.005 116.316 184.907 116.316C183.087 116.316 181.699 115.938 180.741 115.183C179.792 114.427 179.185 113.306 178.921 111.821Z" fill="url(#paint5_linear_6_63)"/>
<defs>
<linearGradient id="paint0_linear_6_63" x1="128" y1="0" x2="128" y2="256" gradientUnits="userSpaceOnUse">
<stop stop-color="#F84E0C"/>
<stop offset="1" stop-color="#F88B0C"/>
</linearGradient>
<linearGradient id="paint1_linear_6_63" x1="127.653" y1="118.399" x2="127.653" y2="193.399" gradientUnits="userSpaceOnUse">
<stop stop-color="#F84E0C"/>
<stop offset="1" stop-color="#F88B0C"/>
</linearGradient>
<linearGradient id="paint2_linear_6_63" x1="176.818" y1="197.447" x2="176.818" y2="208.787" gradientUnits="userSpaceOnUse">
<stop stop-color="#F84E0C"/>
<stop offset="1" stop-color="#F88B0C"/>
</linearGradient>
<linearGradient id="paint3_linear_6_63" x1="176.818" y1="186.108" x2="176.818" y2="197.447" gradientUnits="userSpaceOnUse">
<stop stop-color="#F84E0C"/>
<stop offset="1" stop-color="#F88B0C"/>
</linearGradient>
<linearGradient id="paint4_linear_6_63" x1="128" y1="91" x2="128" y2="122" gradientUnits="userSpaceOnUse">
<stop stop-color="#F84E0C"/>
<stop offset="1" stop-color="#F88B0C"/>
</linearGradient>
<linearGradient id="paint5_linear_6_63" x1="128" y1="91" x2="128" y2="122" gradientUnits="userSpaceOnUse">
<stop stop-color="#E52E20"/>
<stop offset="1" stop-color="#F88B0C"/>
</linearGradient>
</defs>
</svg>
